<?xml version="1.0" encoding="iso-8859-1"?>
<!-- Generator: Adobe Illustrator 25.2.3, SVG Export Plug-In . SVG Version: 6.00 Build 0)  -->
<svg 
	version="1.1" 
	id="Layer_1" 
	xmlns="http://www.w3.org/2000/svg" 
	xmlns:xlink="http://www.w3.org/1999/xlink" 
	x="0px"
	y="0px" 
	viewBox="0 0 48 48" 
	style="enable-background:new 0 0 48 48;" 
	xml:space="preserve"
>
	<path 
		fill="#3dd1eb" 
		stroke="#3c7e4f"
		d="M37.787,20c-4.183,0-12.448,0-17.791,0C17.235,20,15,22.239,15,25v0c0,1.105-0.895,2-2,2l-1.726,0
		c-4.261,0-7.982,3.215-8.257,7.467C2.716,39.127,6.405,43,11,43h15.5c4.694,0,8.5-3.806,8.5-8.5V33c0-1.657,1.343-3,3-3h0
		c2.923,0,5.261-2.509,4.976-5.491C42.729,21.909,40.399,20,37.787,20z" 
	/>
	
	<polygon fill="#00ffb3" points="41.037,8 38,14 44.074,14 " />
	<polygon fill="#00ffb3" points="41.037,10 37.074,18 45,18 " />
	<polygon fill="#00ffb3" points="28.999,4 25,12 33,12 " />
	<polygon fill="#00ffb3" points="28.999,6 23,18 35,18 " />

	<rect x="20" y="23" fill="#7DEBF5" width="10" height="3" />
	<rect x="16" y="36" fill="#7DEBF5" width="10" height="3" />
	<rect x="8" y="30"  fill="#7DEBF5" width="8" height="3" />
	<rect x="23" y="30" fill="#7DEBF5" width="8" height="3" />
</svg>